<svg width="60" height="80" viewBox="0 0 60 80" xmlns="http://www.w3.org/2000/svg"><title>center-level-pri</title><g fill="none" fill-rule="evenodd"><path d="M0 24.05V3a3 3 0 0 1 3-3h54a3 3 0 0 1 3 3v21.05a2.5 2.5 0 1 0 0 4.9V77a3 3 0 0 1-3 3H3a3 3 0 0 1-3-3V28.95a2.5 2.5 0 1 0 0-4.9z" fill="#91E14B" fill-rule="nonzero"/><rect fill="#FFF" fill-rule="nonzero" x="6" y="26" width="48" height="48" rx="3"/><text fill="#33373D" font-family=".PingFangSC-Regular, .PingFang SC" font-size="9"><tspan x="9" y="65">阅币/千字</tspan></text><text fill="#FFF" font-family="PingFangSC-Medium, PingFang SC" font-size="10" font-weight="400"><tspan x="10" y="16">订阅价格</tspan></text></g></svg>