<svg width="60" height="80" viewBox="0 0 60 80" xmlns="http://www.w3.org/2000/svg"><title>Group 3 Copy 4</title><g fill="none" fill-rule="evenodd"><path d="M0 24.05V3a3 3 0 0 1 3-3h54a3 3 0 0 1 3 3v21.05a2.5 2.5 0 1 0 0 4.9V77a3 3 0 0 1-3 3H3a3 3 0 0 1-3-3V28.95a2.5 2.5 0 1 0 0-4.9z" fill="#A2F2DB"/><rect fill="#FFF" x="6" y="26" width="48" height="48" rx="3"/><text font-family=".PingFangSC-Regular, .PingFang SC" font-size="9" fill="#33373D"><tspan x="18.453" y="65">张/日</tspan></text><text font-family=".PingFangSC-Regular, .PingFang SC" font-size="10" fill="#FFF"><tspan x="9.56" y="16">送推荐票</tspan></text></g></svg>